<?xml version="1.0" encoding="UTF-8" standalone="no"?>
<!-- Created with Inkscape (http://www.inkscape.org/) -->

<svg
   width="512mm"
   height="512mm"
   viewBox="0 0 512 512"
   version="1.1"
   id="svg1"
   sodipodi:docname="logo.svg"
   xml:space="preserve"
   inkscape:version="1.3 (0e150ed6c4, 2023-07-21)"
   inkscape:export-filename="logo.png"
   inkscape:export-xdpi="50.799999"
   inkscape:export-ydpi="50.799999"
   xmlns:inkscape="http://www.inkscape.org/namespaces/inkscape"
   xmlns:sodipodi="http://sodipodi.sourceforge.net/DTD/sodipodi-0.dtd"
   xmlns="http://www.w3.org/2000/svg"
   xmlns:svg="http://www.w3.org/2000/svg"><sodipodi:namedview
     id="namedview1"
     pagecolor="#ffffff"
     bordercolor="#000000"
     borderopacity="0.25"
     inkscape:showpageshadow="2"
     inkscape:pageopacity="0.0"
     inkscape:pagecheckerboard="0"
     inkscape:deskcolor="#d1d1d1"
     inkscape:document-units="mm"
     inkscape:zoom="0.36213173"
     inkscape:cx="909.88988"
     inkscape:cy="890.5599"
     inkscape:window-width="1920"
     inkscape:window-height="1009"
     inkscape:window-x="1912"
     inkscape:window-y="-1"
     inkscape:window-maximized="1"
     inkscape:current-layer="layer1" /><defs
     id="defs1"><clipPath
       clipPathUnits="userSpaceOnUse"
       id="clipPath28"><path
         d="m -19.263442,67.003133 c 1.316244,-1.244029 3.08031,-1.919817 4.895532,-1.852372 l 62.010271,2.404106 c 12.521919,1.823592 24.857065,4.509362 36.90643,8.018087 0.42528,0.121294 0.828812,0.280888 1.208393,0.474294 2.719336,1.385571 4.197904,4.50368 3.400965,7.565607 -4.986791,19.703605 3.90916,40.890525 22.802061,50.516935 18.89201,9.62596 41.26192,4.37092 54.27089,-11.24631 2.01584,-2.44086 5.40307,-3.07972 8.12064,-1.69505 0.37956,0.1934 0.74587,0.42605 1.09397,0.69882 9.92018,7.68531 19.34342,16.086 28.19586,25.15318 l 38.37632,48.7443 c 1.13044,1.43345 1.62864,3.26191 1.37002,5.04483 -0.24987,1.80982 -1.19189,3.42073 -2.68299,4.48812 l -43.70905,31.90606 c -2.0603,1.52148 -4.75969,1.68927 -6.95513,0.57063 -0.56668,-0.28873 -1.09961,-0.66353 -1.57958,-1.12245 L 167.91072,217.16397 94.377879,361.4803 c -1.669773,3.27712 -5.705661,4.58772 -8.991692,2.9134 L -58.71006,290.973 c -3.277131,-1.66978 -4.580589,-5.70203 -2.911267,-8.97826 l 73.531933,-144.31455 -27.878431,-5.1678 c -0.653391,-0.11855 -1.268963,-0.32895 -1.834755,-0.61723 -2.190983,-1.11637 -3.633885,-3.39476 -3.628248,-5.96314 l 0.112986,-54.119358 c 0.0054,-1.825537 0.746007,-3.539054 2.0544,-4.809529 z"
         id="path28"
         style="fill:#220098;fill-opacity:1;stroke-width:0.999999" /></clipPath><clipPath
       clipPathUnits="userSpaceOnUse"
       id="clipPath29"><path
         d="m 243.41149,200.84494 c 0.23277,-1.79609 -0.2574,-3.62046 -1.37892,-5.04937 l -38.39369,-48.75426 c -8.83551,-9.05857 -18.25876,-17.45925 -28.17982,-25.14502 -0.3481,-0.27276 -0.71441,-0.50542 -1.09399,-0.69882 -2.71933,-1.38557 -6.11102,-0.74898 -8.11974,1.69551 -13.00939,15.61589 -35.37887,20.87227 -54.27177,11.24585 C 93.081545,124.51287 84.184255,103.3264 89.17238,83.62235 89.962197,80.556794 88.488091,77.440958 85.77052,76.056287 85.390952,75.862888 84.987424,75.703295 84.562137,75.581998 72.513656,72.073723 60.178518,69.387957 47.639673,67.555741 l -61.991998,-2.395919 c -1.824139,-0.07199 -3.59623,0.599711 -4.886629,1.856909 -1.317302,1.265936 -2.066857,2.974912 -2.053945,4.80864 l -0.121009,54.115279 c -0.01989,2.56111 1.431028,4.84359 3.626467,5.96222 0.566681,0.28874 1.183146,0.49959 1.836539,0.61815 l 27.861507,5.15917 -73.532842,144.31633 c -1.669774,3.27711 -0.357839,7.31257 2.928192,8.98689 l 144.096247,73.4207 c 3.277131,1.66978 7.305446,0.3542 8.974767,-2.92202 l 73.531931,-144.31455 20.56737,19.51657 c 0.47997,0.45892 1.01201,0.83326 1.5778,1.12154 2.19098,1.11636 4.88236,0.94449 6.9569,-0.56972 l 43.71708,-31.90198 c 1.47373,-1.07736 2.42466,-2.68373 2.68344,-4.48901 z"
         id="path29"
         style="fill:#220098;fill-opacity:1;stroke-width:0.999999" /></clipPath><linearGradient
       id="editing-rainbow-gradient"
       x1="51.540756"
       x2="276.32669"
       y1="121.84801"
       y2="121.84801"
       gradientUnits="userSpaceOnUse"
       gradientTransform="scale(1.5250063,0.65573498)"><stop
         offset="0.00"
         stop-color="#f00"
         id="stop1" /><stop
         offset="0.17"
         stop-color="#f90"
         id="stop2" /><stop
         offset="0.34"
         stop-color="#ff4"
         id="stop3" /><stop
         offset="0.51"
         stop-color="#9f0"
         id="stop4" /><stop
         offset="0.68"
         stop-color="#09f"
         id="stop5" /><stop
         offset="0.85"
         stop-color="#00f"
         id="stop6" /><stop
         offset="1.00"
         stop-color="#90f"
         id="stop7" /></linearGradient><filter
       id="editing-rainbow"
       x="-0.025122549"
       y="-0.065495208"
       width="1.0502451"
       height="1.1773163"><feMorphology
         operator="dilate"
         radius="1,2.8"
         in="SourceGraphic"
         result="dilate"
         id="feMorphology7" /><feColorMatrix
         in="dilate"
         result="color"
         type="matrix"
         values="0.7 0 0 0 0  0 0.7 0 0 0  0 0 0.7 0 0  0 0 0 1 0"
         id="feColorMatrix7" /><feOffset
         dy="2.8"
         result="offset"
         id="feOffset7" /><feGaussianBlur
         stdDeviation="3"
         id="feGaussianBlur7" /><feOffset
         dy="3"
         id="feOffset8" /><feColorMatrix
         result="blur"
         type="matrix"
         values="0.7 0 0 0 0  0 0.7 0 0 0  0 0 0.7 0 0  0 0 0 1 0"
         id="feColorMatrix8" /><feMerge
         id="feMerge10"><feMergeNode
           in="blur"
           id="feMergeNode8" /><feMergeNode
           in="offset"
           id="feMergeNode9" /><feMergeNode
           in="SourceGraphic"
           id="feMergeNode10" /></feMerge></filter><linearGradient
       id="editing-rainbow-gradient-4"
       x1="51.540756"
       x2="276.32669"
       y1="121.84801"
       y2="121.84801"
       gradientUnits="userSpaceOnUse"
       gradientTransform="scale(1.5250063,0.65573498)"><stop
         offset="0.00"
         stop-color="#f00"
         id="stop1-5" /><stop
         offset="0.17"
         stop-color="#f90"
         id="stop2-9" /><stop
         offset="0.34"
         stop-color="#ff4"
         id="stop3-2" /><stop
         offset="0.51"
         stop-color="#2bff00"
         id="stop4-9" /><stop
         offset="0.68"
         stop-color="#0076ff"
         id="stop5-9" /><stop
         offset="0.85"
         stop-color="#9400ff"
         id="stop6-9" /><stop
         offset="1.00"
         stop-color="#ff00ad"
         id="stop7-4" /></linearGradient><filter
       id="editing-rainbow-1"
       x="-0.025122549"
       y="-0.065495208"
       width="1.0502451"
       height="1.1773163"><feMorphology
         operator="dilate"
         radius="1,2.8"
         in="SourceGraphic"
         result="dilate"
         id="feMorphology7-0" /><feColorMatrix
         in="dilate"
         result="color"
         type="matrix"
         values="0.7 0 0 0 0  0 0.7 0 0 0  0 0 0.7 0 0  0 0 0 1 0"
         id="feColorMatrix7-5" /><feOffset
         dy="2.8"
         result="offset"
         id="feOffset7-0" /><feGaussianBlur
         stdDeviation="3"
         id="feGaussianBlur7-5" /><feOffset
         dy="3"
         id="feOffset8-5" /><feColorMatrix
         result="blur"
         type="matrix"
         values="0.7 0 0 0 0  0 0.7 0 0 0  0 0 0.7 0 0  0 0 0 1 0"
         id="feColorMatrix8-7" /><feMerge
         id="feMerge10-3"><feMergeNode
           in="blur"
           id="feMergeNode8-6" /><feMergeNode
           in="offset"
           id="feMergeNode9-7" /><feMergeNode
           in="SourceGraphic"
           id="feMergeNode10-8" /></feMerge></filter></defs><g
     inkscape:label="Layer 1"
     inkscape:groupmode="layer"
     id="layer1"><rect
       style="fill:#bb86fc;fill-opacity:1;stroke:none;stroke-width:0.264583"
       id="rect1"
       width="512.04602"
       height="512.11194"
       x="-0.023010254"
       y="-0.055969238" /><g
       style="fill:#000000"
       id="g3"
       transform="matrix(1.4356592,0,0,1.4356592,43.862944,43.863407)"><g
         id="g2">&#10;	&#10;	<path
   d="m 295.158,58.839 c -0.608,-1.706 -1.873,-3.109 -3.521,-3.873 l -56.343,-26.01 c -11.985,-4.06 -24.195,-7.267 -36.524,-9.611 -0.434,-0.085 -0.866,-0.126 -1.292,-0.126 -3.052,0 -5.785,2.107 -6.465,5.197 -4.502,19.82 -22.047,34.659 -43.251,34.659 -21.203,0 -38.749,-14.838 -43.25,-34.659 -0.688,-3.09 -3.416,-5.197 -6.466,-5.197 -0.426,0 -0.858,0.041 -1.292,0.126 -12.328,2.344 -24.538,5.551 -36.542,9.611 L 3.889,54.965 c -1.658,0.764 -2.932,2.167 -3.511,3.873 -0.599,1.726 -0.491,3.589 0.353,5.217 l 24.46,48.272 c 1.145,2.291 3.474,3.666 5.938,3.666 0.636,0 1.281,-0.092 1.917,-0.283 l 27.167,-8.052 v 161.97 c 0,3.678 3.001,6.678 6.689,6.678 h 161.723 c 3.678,0 6.67,-3.001 6.67,-6.678 V 107.66 l 27.186,8.052 c 0.636,0.191 1.28,0.283 1.915,0.283 2.459,0 4.779,-1.375 5.94,-3.666 l 24.469,-48.272 c 0.824,-1.629 0.942,-3.492 0.353,-5.218 z"
   id="path2"
   style="fill:#220098;fill-opacity:1" />&#10;<g
   id="g9"
   transform="rotate(-27,-26.46391,22.072117)"
   clip-path="url(#clipPath29)"><rect
     style="fill:#003399;fill-opacity:1;stroke:none;stroke-width:0.112318"
     id="rect7"
     width="4.6781359"
     height="75.030113"
     x="2.5543327"
     y="62.650078" /><g
     id="g8"><rect
       style="fill:#ef2929;fill-opacity:1;stroke:none;stroke-width:0.112318"
       id="rect3"
       width="4.6781359"
       height="75.030113"
       x="-16.158211"
       y="62.650074" /><rect
       style="fill:#f57900;fill-opacity:1;stroke:none;stroke-width:0.112318"
       id="rect4"
       width="4.6781359"
       height="75.030113"
       x="-11.480075"
       y="62.650078" /><rect
       style="fill:#ffff00;fill-opacity:1;stroke:none;stroke-width:0.112318"
       id="rect5"
       width="4.6781359"
       height="75.030113"
       x="-6.801939"
       y="62.650078" /><rect
       style="fill:#009900;fill-opacity:1;stroke:none;stroke-width:0.112318"
       id="rect6"
       width="4.6781359"
       height="75.030113"
       x="-2.1238031"
       y="62.650078" /><rect
       style="fill:#8c28ac;fill-opacity:1;stroke:none;stroke-width:0.112318"
       id="rect8"
       width="4.6781359"
       height="75.030113"
       x="7.2324686"
       y="62.650078" /></g></g><g
   id="g15"
   transform="matrix(-0.89100653,-0.4539905,-0.4539905,0.89100653,308.41293,-9.606648)"
   clip-path="url(#clipPath28)"><rect
     style="fill:#003399;fill-opacity:1;stroke:none;stroke-width:0.112318"
     id="rect9"
     width="4.6781359"
     height="75.030113"
     x="2.5543327"
     y="62.650078" /><g
     id="g14"><rect
       style="fill:#ef2929;fill-opacity:1;stroke:none;stroke-width:0.112318"
       id="rect10"
       width="4.6781359"
       height="75.030113"
       x="-16.158211"
       y="62.650074" /><rect
       style="fill:#f57900;fill-opacity:1;stroke:none;stroke-width:0.112318"
       id="rect11"
       width="4.6781359"
       height="75.030113"
       x="-11.480075"
       y="62.650078" /><rect
       style="fill:#ffff00;fill-opacity:1;stroke:none;stroke-width:0.112318"
       id="rect12"
       width="4.6781359"
       height="75.030113"
       x="-6.801939"
       y="62.650078" /><rect
       style="fill:#009900;fill-opacity:1;stroke:none;stroke-width:0.112318"
       id="rect13"
       width="4.6781359"
       height="75.030113"
       x="-2.1238031"
       y="62.650078" /><rect
       style="fill:#8c28ac;fill-opacity:1;stroke:none;stroke-width:0.112318"
       id="rect14"
       width="4.6781359"
       height="75.030113"
       x="7.2324686"
       y="62.650078" /></g></g></g><path
         d="m 105.39998,16.4 h 66.6 v 0 q 1.4,2.2 2.5,5.9 v 0 0 q 1.1,3.7 1.1,7.7 v 0 0 q 0,7.8 -3.3,11.1 v 0 0 q -3.3,3.3 -8.9,3.3 v 0 h -42 V 67 h 43.8 v 0 q 1.6,2.2 2.7,5.8 v 0 0 q 1.1,3.6 1.1,7.6 v 0 0 q 0,7.6 -3.3,10.9 v 0 0 q -3.3,3.3 -8.9,3.3 v 0 h -35 v 42.2 0 q -2.2,0.6 -6.9,1.2 v 0 0 q -4.7,0.6 -9.3,0.6 v 0 0 q -4.6,0 -8.1,-0.7 v 0 0 q -3.5,-0.7 -5.9,-2.5 v 0 0 q -2.4,-1.8 -3.6,-5 v 0 0 q -1.2,-3.2 -1.2,-8.4 v 0 -87 0 q 0,-8.6 5,-13.6 v 0 0 q 5,-5 13.6,-5 z m 112,28 h -30 v 0 q -1.4,-2.2 -2.6,-6 v 0 0 q -1.2,-3.8 -1.2,-8 v 0 0 q 0,-7.8 3.5,-11.2 v 0 0 q 3.5,-3.4 9.1,-3.4 v 0 h 87.2 v 0 q 1.4,2.2 2.6,6 v 0 0 q 1.2,3.8 1.2,8 v 0 0 q 0,7.8 -3.5,11.2 v 0 0 q -3.5,3.4 -9.1,3.4 v 0 h -22.2 v 92.4 0 q -2.2,0.6 -6.9,1.2 v 0 0 q -4.7,0.6 -9.3,0.6 v 0 0 q -4.6,0 -8.1,-0.7 v 0 0 q -3.5,-0.7 -5.9,-2.5 v 0 0 q -2.4,-1.8 -3.6,-5 v 0 0 q -1.2,-3.2 -1.2,-8.4 v 0 z m 112.6,-24.4 v 0 0 q 3.4,-2 10.3,-3.8 v 0 0 q 6.9,-1.8 13.9,-1.8 v 0 0 q 10,0 17.7,2.9 v 0 0 q 7.7,2.9 9.9,9.1 v 0 0 q 3.6,10.4 7.8,24.2 v 0 0 q 4.2,13.8 8.4,28.5 v 0 0 q 4.2,14.7 8.2,29 v 0 0 q 4,14.3 7,25.3 v 0 0 q -2.4,2.8 -7.2,4.5 v 0 0 q -4.8,1.7 -11.4,1.7 v 0 0 q -4.8,0 -8.1,-0.8 v 0 0 q -3.3,-0.8 -5.4,-2.4 v 0 0 q -2.1,-1.6 -3.4,-4.2 v 0 0 q -1.3,-2.6 -2.3,-6 v 0 l -3.6,-13.8 h -36.2 v 0 q -1.6,6 -3.2,12.4 v 0 0 q -1.6,6.4 -3.2,12.4 v 0 0 q -2.8,1 -5.9,1.7 v 0 0 q -3.1,0.7 -7.5,0.7 v 0 0 q -10.2,0 -15.1,-3.5 v 0 0 q -4.9,-3.5 -4.9,-9.7 v 0 0 q 0,-2.8 0.8,-5.6 v 0 0 q 0.8,-2.8 1.8,-6.6 v 0 0 q 1.4,-5.4 3.9,-13.4 v 0 0 q 2.5,-8 5.5,-17.3 v 0 0 q 3,-9.3 6.4,-19.1 v 0 0 q 3.4,-9.8 6.4,-18.5 v 0 0 q 3,-8.7 5.5,-15.5 v 0 0 q 2.5,-6.8 3.9,-10.4 z m 25.2,25.8 h -1.2 v 0 q -2.8,8.4 -6.3,18.7 v 0 0 q -3.5,10.3 -6.3,20.9 v 0 h 24.8 v 0 q -2.8,-10.8 -5.7,-21.1 v 0 0 q -2.9,-10.3 -5.3,-18.5 z"
         fill="url(#editing-rainbow-gradient)"
         id="path10-1"
         style="fill:url(#editing-rainbow-gradient-4);filter:url(#editing-rainbow-1)"
         transform="matrix(0.45857748,0,0,0.45857748,34.961406,76.716983)" /></g></g><style
     id="style11">text {&#10;  font-size: 64px;&#10;  font-family: Arial Black;&#10;  dominant-baseline: central;&#10;  text-anchor: middle;&#10;}</style><style
     id="style11-5">text {&#10;  font-size: 64px;&#10;  font-family: Arial Black;&#10;  dominant-baseline: central;&#10;  text-anchor: middle;&#10;}</style></svg>
